<svg id="info_16" data-name="info@16" xmlns="http://www.w3.org/2000/svg" width="16" height="16" viewBox="0 0 16 16">
  <rect id="Bounding_box" data-name="Bounding box" width="16" height="16" fill="none"/>
  <path id="Path_41" data-name="Path 41" d="M10.384,6.051a.75.75,0,0,1,.082,1.5l-.082,0-.081,0a.75.75,0,0,1,.081-1.5Zm0,2.5a.5.5,0,0,1,.5.433l0,.067v5.5a.5.5,0,0,1-1,.068l0-.068v-5.5A.5.5,0,0,1,10.384,8.551Zm0-5.167a7,7,0,1,0,7,7A7,7,0,0,0,10.384,3.384Zm0-1a8,8,0,1,1-8,8A8,8,0,0,1,10.384,2.384Z" transform="translate(-2.384 -2.384)" fill="#183052" fill-rule="evenodd"/>
</svg>
